#N canvas 391 229 450 300 16;
#X obj 246 24 inlet;
#X obj 148 24 inlet~;
#X obj 150 200 outlet~;
#X obj 150 146 *~;
#X obj 246 78 t f f;
#X obj 61 24 inlet~;
#X obj 63 200 outlet~;
#X obj 63 146 *~;
#X connect 0 0 4 0;
#X connect 1 0 3 0;
#X connect 3 0 2 0;
#X connect 4 0 7 1;
#X connect 4 1 3 1;
#X connect 5 0 7 0;
#X connect 7 0 6 0;
