#N canvas 129 330 1022 348 10;
#X obj 19 32 inlet;
#X obj 19 200 outlet;
#X text 55 31 Hz;
#X text 61 198 ms;
#X obj 19 81 t b f;
#X obj 19 145 /;
#X obj 19 115 f 44100;
#X obj 108 61 samplerate~;
#X obj 108 37 loadbang;
#X floatatom 108 91 5 0 0 0 - - -, f 5;
#X connect 0 0 4 0;
#X connect 4 0 6 0;
#X connect 4 1 5 1;
#X connect 5 0 1 0;
#X connect 6 0 5 0;
#X connect 7 0 9 0;
#X connect 7 0 6 1;
#X connect 8 0 7 0;
