#N canvas 415 22 680 488.094 10;
#X obj 104 39 inlet;
#X obj 190 38 inlet;
#X obj 104 200 spigot 0;
#X obj 171 200 spigot 1;
#X obj 104 87 t f f;
#X obj 190 87 t f f;
#X obj 164 134 inv;
#X text 242 39 0 for left outlet;
#X text 242 62 1 for right outlet;
#X obj 104 257 outlet;
#X obj 171 257 outlet;
#X connect 0 0 4 0;
#X connect 1 0 5 0;
#X connect 2 0 9 0;
#X connect 3 0 10 0;
#X connect 4 0 2 0;
#X connect 4 1 3 0;
#X connect 5 0 6 0;
#X connect 5 1 3 1;
#X connect 6 0 2 1;
