#N canvas 415 22 450 300 10;
#X obj 33 31 r \$1;
#X obj 54 137 r \$2;
#X obj 147 137 r \$3;
#X obj 33 222 outlet;
#X obj 33 84 select 0 1;
#X obj 33 168 f \$4;
#X obj 126 168 f \$5;
#X obj 72 31 inlet;
#X obj 90 137 inlet;
#X obj 187 137 inlet;
#X connect 0 0 4 0;
#X connect 1 0 5 1;
#X connect 2 0 6 1;
#X connect 4 0 5 0;
#X connect 4 1 6 0;
#X connect 5 0 3 0;
#X connect 6 0 3 0;
#X connect 7 0 4 0;
#X connect 8 0 5 1;
#X connect 9 0 6 1;
