#N canvas 129 330 1022 348 10;
#X obj 19 32 inlet;
#X obj 19 200 outlet;
#X text 55 31 Hz;
#X text 61 198 ms;
#X obj 19 81 t b f;
#X obj 19 145 /;
#X msg 19 114 1000;
#X connect 0 0 4 0;
#X connect 4 0 6 0;
#X connect 4 1 5 1;
#X connect 5 0 1 0;
#X connect 6 0 5 0;
