#N canvas 0 22 450 300 10;
#X obj 50 41 inlet;
#X obj 144 260 outlet;
#X obj 159 41 inlet;
#X obj 236 41 inlet;
#X obj 248 211 f;
#X obj 51 130 moses;
#X msg 51 162 bang;
#X obj 171 211 f;
#X obj 97 130 moses;
#X msg 124 162 bang;
#X obj 236 73 t f f;
#X obj 159 73 t f f;
#X obj 335 -3 loadbang;
#X obj 335 29 f \$1;
#X obj 352 50 f \$2;
#X connect 0 0 5 0;
#X connect 2 0 11 0;
#X connect 3 0 10 0;
#X connect 4 0 1 0;
#X connect 5 0 6 0;
#X connect 5 1 8 0;
#X connect 6 0 7 0;
#X connect 7 0 1 0;
#X connect 8 0 1 0;
#X connect 8 1 9 0;
#X connect 9 0 4 0;
#X connect 10 0 8 1;
#X connect 10 1 4 1;
#X connect 11 0 5 1;
#X connect 11 1 7 1;
#X connect 12 0 13 0;
#X connect 12 0 14 0;
#X connect 13 0 11 0;
#X connect 14 0 10 0;
