#N canvas 534 49 616 654.062 10;
#X obj 155 17 adc~;
#X obj 155 403 dac~;
#X obj 155 185 looper;
#X msg 202 18 symbol record;
#X msg 207 50 symbol play;
#X msg 222 77 symbol stop;
#X obj 24 46 s dsp;
#X obj 24 19 tgl 15 0 empty empty empty 17 7 0 10 -262144 -1 -1 0 1
;
#X floatatom 283 140 5 0 100 0 - - -, f 5;
#X obj 283 160 / 100;
#X floatatom 348 140 5 0 99 0 - - -, f 5;
#X obj 348 160 / 100;
#X msg 283 118 10;
#X msg 348 118 90;
#X obj 348 79 loadbang;
#X floatatom 348 403 5 0 0 0 - - -, f 5;
#X msg 299 18 symbol stoprecord;
#X obj 376 304 * 100;
#X obj 376 227 * 100;
#X obj 26 385 print;
#X msg 22 334 bang;
#X msg 376 251 set \$1;
#X msg 376 328 set \$1;
#X connect 0 0 2 0;
#X connect 2 0 1 0;
#X connect 2 0 1 1;
#X connect 2 1 15 0;
#X connect 2 2 17 0;
#X connect 2 3 18 0;
#X connect 3 0 2 1;
#X connect 4 0 2 1;
#X connect 5 0 2 1;
#X connect 7 0 6 0;
#X connect 8 0 9 0;
#X connect 9 0 2 2;
#X connect 10 0 11 0;
#X connect 11 0 2 3;
#X connect 12 0 8 0;
#X connect 13 0 10 0;
#X connect 14 0 12 0;
#X connect 14 0 13 0;
#X connect 16 0 2 1;
#X connect 17 0 22 0;
#X connect 18 0 21 0;
#X connect 20 0 19 0;
#X connect 21 0 10 0;
#X connect 22 0 8 0;
