#N canvas 549 109 450 533 10;
#X obj 46 -297 loadbang;
#X msg 66 -270 bang;
#X obj 31 -59 min;
#X floatatom 53 -31 8 0 0 0 - - -, f 8;
#X floatatom 57 -85 7 0 0 0 - - -, f 7;
#X floatatom 41 -327 8 0 0 0 - - -, f 8;
#X obj 63 -179 samplerate~;
#X text 77 -357 ms;
#X obj 46 -151 /;
#X obj 46 -242 t b b;
#X obj 46 -115 * 1000;
#X text 70 -151 ms;
#X obj 31 -4 mstosam;
#X text 80 30 samples;
#X obj 31 -357 inlet;
#X obj 46 -202 array size \$1;
#X obj 31 30 outlet;
#X text 31 -389 calculate circular recording length;
#X text 136 -202 buffer name for cyclical recording;
#X connect 0 0 9 0;
#X connect 1 0 9 0;
#X connect 2 0 3 0;
#X connect 2 0 12 0;
#X connect 6 0 8 1;
#X connect 8 0 10 0;
#X connect 9 0 15 0;
#X connect 9 1 6 0;
#X connect 10 0 2 1;
#X connect 10 0 4 0;
#X connect 12 0 16 0;
#X connect 14 0 5 0;
#X connect 14 0 2 0;
#X connect 15 0 8 0;
