#N canvas 415 22 450 300 10;
#X obj 118 75 inlet;
#X obj 209 75 inlet;
#X obj 118 125 f;
#X obj 209 125 f;
#X obj 118 212 moses;
#X obj 118 250 outlet;
#X obj 209 212 moses;
#X obj 118 147 t f f;
#X obj 209 147 t f f;
#X obj 236 250 outlet;
#X connect 0 0 2 0;
#X connect 1 0 3 0;
#X connect 2 0 7 0;
#X connect 3 0 8 0;
#X connect 4 0 5 0;
#X connect 6 1 9 0;
#X connect 7 0 4 0;
#X connect 7 1 6 1;
#X connect 8 0 6 0;
#X connect 8 1 4 1;
