#N canvas 415 22 450 539.031 10;
#X obj 44 66 inlet;
#X obj 55 295 outlet;
#X text 36 25 Convert played buffer length in ms to phasor frequency
;
#X obj 44 114 / 1000;
#X obj 45 162 t b f;
#X msg 44 211 1;
#X obj 55 263 /;
#X connect 0 0 3 0;
#X connect 3 0 4 0;
#X connect 4 0 5 0;
#X connect 4 1 6 1;
#X connect 5 0 6 0;
#X connect 6 0 1 0;
