#N canvas 190 113 649 503 10;
#X obj 75 54 inlet~;
#X obj 200 54 inlet;
#X obj 248 54 inlet;
#X text 200 32 min;
#X text 248 32 max;
#X obj 148 397 outlet;
#X text 148 420 start;
#X obj 200 397 outlet;
#X text 200 420 reset;
#X obj 74 397 outlet~;
#X obj 149 285 detector~;
#X obj 200 207 list;
#X obj 248 106 t b f;
#X msg 200 231 set \$1 0.001 \$2 0.001;
#X obj 200 149 f 0.002;
#X obj 276 149 f 0.998;
#X obj 377 76 loadbang;
#X obj 377 100 t b b;
#X obj 199 341 f;
#X obj 149 341 f;
#X obj 276 179 t f f;
#X obj 200 179 t f f;
#X connect 0 0 9 0;
#X connect 0 0 10 0;
#X connect 1 0 14 0;
#X connect 2 0 12 0;
#X connect 10 0 19 0;
#X connect 10 1 18 0;
#X connect 11 0 13 0;
#X connect 12 0 14 0;
#X connect 12 1 15 0;
#X connect 13 0 10 1;
#X connect 14 0 21 0;
#X connect 15 0 20 0;
#X connect 16 0 17 0;
#X connect 17 0 14 0;
#X connect 17 1 15 0;
#X connect 18 0 7 0;
#X connect 19 0 5 0;
#X connect 20 0 11 1;
#X connect 20 1 18 1;
#X connect 21 0 11 0;
#X connect 21 1 19 1;
