#N canvas 102 22 598 722.094 10;
#X obj 44 173 phasor~ 0.1;
#X obj 44 344 reset_phase~;
#X floatatom 78 412 5 0 0 0 - - -, f 5;
#X floatatom 44 109 5 0 0 0 - - -, f 5;
#X obj 44 130 / 100;
#X floatatom 67 260 5 0 0 0 - - -, f 5;
#X floatatom 147 260 5 0 0 0 - - -, f 5;
#X obj 147 281 / 1000;
#X obj 67 281 / 1000;
#X floatatom 67 303 5 0 0 0 - - -, f 5;
#X floatatom 147 303 5 0 0 0 - - -, f 5;
#X text 56 12 Example usage;
#X text 67 212 phase start;
#X text 147 212 phase end;
#X text 136 355 phase reset event;
#X obj 44 62 loadbang;
#X obj 115 136 -;
#X msg 115 105 0;
#X text 149 114 ping pong block;
#X text 149 165 connect to left phaser instead to just loop;
#X msg 44 82 20;
#X msg 67 235 100;
#X msg 147 235 900;
#X obj 118 190 loadbang;
#X obj 137 385 t f;
#X connect 0 0 1 0;
#X connect 1 1 2 0;
#X connect 1 2 24 0;
#X connect 3 0 4 0;
#X connect 3 0 16 1;
#X connect 4 0 0 0;
#X connect 4 0 1 3;
#X connect 5 0 8 0;
#X connect 6 0 7 0;
#X connect 7 0 10 0;
#X connect 8 0 9 0;
#X connect 9 0 1 1;
#X connect 10 0 1 2;
#X connect 15 0 20 0;
#X connect 16 0 3 0;
#X connect 17 0 16 0;
#X connect 20 0 3 0;
#X connect 21 0 5 0;
#X connect 22 0 6 0;
#X connect 23 0 21 0;
#X connect 23 0 22 0;
#X connect 24 0 17 0;
