#N canvas 0 22 1280 733.062 10;
#X obj 28 47 inlet~;
#X obj 311 49 inlet;
#X obj 407 49 inlet;
#X obj 27 429 outlet~;
#X obj 288 429 outlet;
#X text 99 94 might not work in vanilla PD;
#X text 99 109 might not be sample-precise;
#X obj 101 429 outlet;
#X text 101 451 phase as a control signal;
#X text 288 451 phase reset;
#X obj 288 397 f;
#X obj 288 360 t b;
#X obj 102 142 envrms~ 2;
#X text 25 17 Phase;
#X text 311 15 Loop start;
#X text 407 15 Loop end;
#X obj 506 49 inlet;
#X text 504 15 direction;
#X obj 506 163 moses 0;
#X obj 506 128 f 1;
#X floatatom 121 200 5 0 0 0 - - -, f 5;
#X floatatom 353 361 5 0 0 0 - - -, f 5;
#X obj 311 79 s \$0-start;
#X obj 407 79 s \$0-end;
#X obj 564 101 t b;
#X obj 564 68 r \$0-start;
#X obj 655 68 r \$0-end;
#X obj 506 239 s \$0-dir;
#X obj 215 216 froute;
#X obj 248 188 r \$0-dir;
#X obj 343 332 fselect \$0-dir \$0-end \$0-start 1 0;
#X obj 506 188 t 0;
#X obj 545 188 t 1;
#X obj 285 281 moses 1;
#X obj 215 282 moses 0;
#X obj 324 256 r \$0-end;
#X obj 254 246 r \$0-start;
#X connect 0 0 3 0;
#X connect 0 0 12 0;
#X connect 1 0 22 0;
#X connect 2 0 23 0;
#X connect 10 0 4 0;
#X connect 11 0 10 0;
#X connect 12 0 7 0;
#X connect 12 0 20 0;
#X connect 12 0 28 0;
#X connect 16 0 19 0;
#X connect 18 0 31 0;
#X connect 18 1 32 0;
#X connect 19 0 18 0;
#X connect 24 0 19 0;
#X connect 25 0 24 0;
#X connect 26 0 24 0;
#X connect 28 0 34 0;
#X connect 28 1 33 0;
#X connect 29 0 28 1;
#X connect 30 0 21 0;
#X connect 30 0 10 1;
#X connect 31 0 27 0;
#X connect 32 0 27 0;
#X connect 33 1 11 0;
#X connect 34 0 11 0;
#X connect 35 0 33 1;
#X connect 36 0 34 1;
