#N canvas 415 22 450 539.031 10;
#X obj 44 66 inlet;
#X obj 55 295 outlet;
#X text 36 25 Convert played buffer length in ms to phasor frequency
;
#X obj 45 162 t b f;
#X msg 44 211 1;
#X obj 55 263 /;
#X obj 44 114 / 44100;
#X obj 113 90 samplerate~;
#X obj 113 66 loadbang;
#X floatatom 113 120 5 0 0 0 - - -, f 5;
#X connect 0 0 6 0;
#X connect 3 0 4 0;
#X connect 3 1 5 1;
#X connect 4 0 5 0;
#X connect 5 0 1 0;
#X connect 6 0 3 0;
#X connect 7 0 6 1;
#X connect 7 0 9 0;
#X connect 8 0 7 0;
