#N canvas 0 22 514 300 10;
#X obj 101 42 inlet~;
#X obj 99 250 outlet~;
#X obj 203 43 inlet;
#X obj 203 158 line~;
#X obj 99 194 *~;
#X text 75 14 Switch sound on/off with anticlick;
#X text 245 44 0 for off 1 for on;
#X obj 203 126 list \$1;
#X obj 242 75 loadbang;
#X msg 242 100 1;
#X connect 0 0 4 0;
#X connect 2 0 7 0;
#X connect 3 0 4 1;
#X connect 4 0 1 0;
#X connect 7 0 3 0;
#X connect 8 0 9 0;
#X connect 9 0 7 1;
