#N canvas 415 22 627 589.062 10;
#X obj 49 397 dac~;
#X obj 49 224 phasor~ 440;
#X floatatom 49 38 5 0 0 0 - - -, f 5;
#X obj 111 86 osc~;
#X floatatom 111 54 5 0 100 0 - - -, f 5;
#X obj 66 110 *~;
#X floatatom 66 67 5 0 100 0 - - -, f 5;
#X obj 66 132 +~ 1;
#X obj 49 164 *~;
#X obj 66 88 / 1000;
#N canvas 415 22 450 300 mixer 0;
#X obj 75 30 inlet~;
#X obj 75 284 outlet~;
#X obj 140 284 outlet~;
#X obj 168 81 hsl 128 15 0 100 0 0 empty empty empty -2 -8 0 10 -262144
-1 -1 700 1;
#X obj 149 81 tgl 15 0 empty empty empty 17 7 0 10 -262144 -1 -1 1
1;
#X floatatom 307 81 5 0 100 0 - - -, f 5;
#X obj 145 204 *;
#X obj 145 177 t b f;
#X obj 75 238 *~;
#X obj 170 30 inlet;
#X obj 217 30 inlet;
#X obj 145 126 t 1 f;
#X obj 145 151 -;
#X connect 0 0 8 0;
#X connect 3 0 6 0;
#X connect 3 0 5 0;
#X connect 4 0 11 0;
#X connect 6 0 8 1;
#X connect 7 0 6 0;
#X connect 7 1 6 1;
#X connect 8 0 1 0;
#X connect 8 0 2 0;
#X connect 9 0 3 0;
#X connect 10 0 4 0;
#X connect 11 0 12 0;
#X connect 11 1 12 1;
#X connect 12 0 7 0;
#X coords 0 -1 1 1 202 45 1 142 62;
#X restore 49 282 pd mixer;
#X connect 1 0 10 0;
#X connect 2 0 8 0;
#X connect 3 0 5 1;
#X connect 4 0 3 0;
#X connect 5 0 7 0;
#X connect 6 0 9 0;
#X connect 7 0 8 1;
#X connect 8 0 1 0;
#X connect 9 0 5 0;
#X connect 10 0 0 0;
#X connect 10 0 0 1;
